<svg xmlns="http://www.w3.org/2000/svg" viewBox="0 0 180 58">
<!-- SVG created with Arrow, by QuiverAI (https://quiver.ai) -->
  <style type="text/css">.cls-0 {fill:#020202;}
.cls-1 {fill:url(#SVGID_1_);}
.cls-2 {fill:#00F6F4;stroke:#00F6F4;stroke-width:0.5;stroke-miterlimit:10;}
.cls-3 {fill:url(#SVGID_2_);stroke:#00F6F4;stroke-width:0.5;stroke-miterlimit:10;}
.cls-4 {fill:url(#SVGID_3_);stroke:#66FF00;stroke-width:0.5;stroke-miterlimit:10;}
.cls-5 {fill:url(#SVGID_4_);stroke:#F2E300;stroke-width:0.5;stroke-miterlimit:10;}
.cls-6 {fill:url(#SVGID_5_);stroke:#F215AE;stroke-width:0.5;stroke-miterlimit:10;}
.cls-7 {fill:url(#SVGID_6_);stroke:#E710F4;stroke-width:0.5;stroke-miterlimit:10;}
.cls-8 {fill:url(#SVGID_7_);}
.cls-9 {fill:#00E5FF;}
.cls-10 {fill:#00B4FF;}
.cls-11 {fill:#00FFFF;}
.cls-12 {fill:#F2E300;}
.cls-13 {fill:#66FF00;}
.cls-14 {fill:#00FF15;}
.cls-15 {fill:#FF0099;}
.cls-16 {fill:#E710F4;}
.cls-17 {fill:#CC00F9;}
.cls-18 {fill:#860297;}
.cls-19 {fill:#A202A1;}
.cls-20 {fill:#F900E1;}</style>
  <rect class="cls-0" width="180" height="57.5"/>
  <linearGradient id="SVGID_1_" x1="1.1" x2="74.3" y1="32.1" y2="32.1" gradientUnits="userSpaceOnUse">
    <stop stop-color="#0ff" stop-opacity="0" offset="0"/>
    <stop stop-color="#0ff" stop-opacity=".5" offset=".45"/>
    <stop stop-color="#00F6D2" offset="1"/>
  </linearGradient>
  <path class="cls-1" d="m73.3 33.1h-72.2v-2h72.2c1.3 0 1.4 2 0 2z"/>
  <linearGradient id="SVGID_2_" x1="1.7" x2="43" y1="24.3" y2="24.3" gradientUnits="userSpaceOnUse">
    <stop stop-color="#0ff" stop-opacity="0" offset="0"/>
    <stop stop-color="#00B4FF" stop-opacity=".6" offset=".52"/>
    <stop stop-color="#00F6F4" offset="1"/>
  </linearGradient>
  <path class="cls-3" d="m41.8 25.3h-40.1v-2h40.1c1.4 0 1.4 2 0 2z"/>
  <linearGradient id="SVGID_3_" x1="1.7" x2="30.9" y1="18.45" y2="18.45" gradientUnits="userSpaceOnUse">
    <stop stop-color="#0ff" stop-opacity="0" offset="0"/>
    <stop stop-color="#00B4FF" stop-opacity=".5" offset=".52"/>
    <stop stop-color="#0ff" offset="1"/>
  </linearGradient>
  <path class="cls-4" d="m29.7 19.4h-28v-2h28c1.4 0.1 1.4 2 0 2z"/>
  <linearGradient id="SVGID_4_" x1="1.7" x2="45" y1="40.2" y2="40.2" gradientUnits="userSpaceOnUse">
    <stop stop-color="#0ff" stop-opacity="0" offset="0"/>
    <stop stop-color="#00B4FF" stop-opacity=".5" offset=".52"/>
    <stop stop-color="#0ff" offset="1"/>
  </linearGradient>
  <path class="cls-5" d="m43.8 41.2h-42.1v-2h42.1c1.4 0 1.4 2 0 2z"/>
  <linearGradient id="SVGID_5_" x1="144.7" x2="157.5" y1="18.5" y2="18.5" gradientUnits="userSpaceOnUse">
    <stop stop-color="#860297" stop-opacity="0" offset="0"/>
    <stop stop-color="#860297" offset="1"/>
  </linearGradient>
  <path class="cls-6" d="m156.4 19.5h-11.7v-2h11.8c1.3 0 1.4 2-0.1 2z"/>
  <linearGradient id="SVGID_6_" x1="144.2" x2="172.9" y1="24.4" y2="24.4" gradientUnits="userSpaceOnUse">
    <stop stop-color="#860297" stop-opacity="0" offset="0"/>
    <stop stop-color="#B2029B" offset=".7"/>
  </linearGradient>
  <path class="cls-7" d="m171.8 25.3h-27.6v-2h27.6c1.4 0.1 1.4 2 0 2z"/>
  <linearGradient id="SVGID_7_" x1="144.1" x2="178.6" y1="32.2" y2="32.2" gradientUnits="userSpaceOnUse">
    <stop stop-color="#860297" stop-opacity="0" offset="0"/>
    <stop stop-color="#A202A1" offset=".53"/>
    <stop stop-color="#7A0278" offset="1"/>
  </linearGradient>
  <path class="cls-8" d="m177.5 33.2h-33.4v-2h33.4c1.5 0 1.5 2 0 2z"/>
  <linearGradient id="SVGID_8_" x1="159.8" x2="171.6" y1="40.3" y2="40.3" gradientUnits="userSpaceOnUse">
    <stop stop-color="#860297" stop-opacity="0" offset="0"/>
    <stop stop-color="#860297" offset="1"/>
  </linearGradient>
  <path d="m170.4 41.3h-10.6v-2h10.6c1.4 0 1.5 2 0 2z" fill="url(#SVGID_8_)"/>
  <linearGradient id="SVGID_9_" x1="144.7" x2="160.6" y1="40.3" y2="40.3" gradientUnits="userSpaceOnUse">
    <stop stop-color="#860297" stop-opacity="0" offset="0"/>
    <stop stop-color="#A202A1" offset="1"/>
  </linearGradient>
  <path d="m159.4 41.3h-14.7v-2h14.7c1.4 0 1.5 2 0 2z" fill="url(#SVGID_9_)"/>
  <path class="cls-2" d="m44.3 9.9c-1.1-0.5-2.2 0.2-2.2 1.5v28.4c0 0.7 0.5 1.6 1.2 2l12.7 6.1c1 0.5 2-0.1 2-1.3v-28.5c0-0.7-0.4-1.5-1.1-1.8l-12.6-6.4z"/>
  <linearGradient id="SVGID_10_" x1="43.19" x2="56.91" y1="39.81" y2="16.19" gradientUnits="userSpaceOnUse">
    <stop stop-color="#006999" offset="0"/>
    <stop stop-color="#008DC4" offset="1"/>
  </linearGradient>
  <path d="m44.3 10.3c-1-0.5-1.9 0.1-1.9 1.3l-0.1 27.9c0 0.7 0.4 1.5 1.1 1.8l12.4 6.2c1 0.5 1.9-0.1 1.9-1.2v-27.9c0-0.7-0.4-1.5-1-1.8l-12.4-6.3z" fill="url(#SVGID_10_)"/>
  <linearGradient id="SVGID_11_" x1="59.9" x2="78.4" y1="32.1" y2="32.1" gradientUnits="userSpaceOnUse">
    <stop stop-color="#006A57" offset="0"/>
    <stop stop-color="#00D1A6" offset="1"/>
  </linearGradient>
  <path d="m62.2 7.4c-0.8 0-1.4 0.6-1.6 1.5v37.3c0 0.7 0.4 1.5 1.1 1.9l14.9 7.7c1 0.6 1.8 0 1.8-1.1v-37.9c0-0.7-0.4-1.3-1-1.5l-15.2-7.9z" fill="url(#SVGID_11_)" stroke="#0fc" stroke-miterlimit="10" stroke-width=".5"/>
  <linearGradient id="SVGID_12_" x1="77.8" x2="100.3" y1="31.35" y2="31.35" gradientUnits="userSpaceOnUse">
    <stop stop-color="#030" offset="0"/>
    <stop stop-color="#690" offset="1"/>
  </linearGradient>
  <path d="m79.9 4.6c-0.8-0.1-1.9 0.5-2 1.5v38.2c0 0.4 0.2 0.6 0.6 0.7l19.7 9.3c1 0.6 2.1 0 2.1-1.3v-37.2c0-0.7-0.4-1.4-1-1.7l-19.2-9.4-0.2-0.1z" fill="url(#SVGID_12_)" stroke="#6f0" stroke-miterlimit="10" stroke-width=".5"/>
  <linearGradient id="SVGID_13_" x1="94" x2="117.6" y1="29" y2="29" gradientUnits="userSpaceOnUse">
    <stop stop-color="#970" offset="0"/>
    <stop stop-color="#C96600" offset="1"/>
  </linearGradient>
  <path d="m95.9 2.7c-0.8 0-1.8 0.6-1.9 1.6v36.7c0 0.7 0.4 1.5 1.1 1.8l20.6 9.5c1 0.5 1.9-0.1 1.9-1.3v-36.8c0-0.8-0.4-1.5-1-1.8l-20.5-9.6-0.2-0.1z" fill="url(#SVGID_13_)" stroke="#F2E300" stroke-miterlimit="10" stroke-width=".5"/>
  <linearGradient id="SVGID_14_" x1="110.2" x2="133.4" y1="26.35" y2="26.35" gradientUnits="userSpaceOnUse">
    <stop stop-color="#703" offset="0"/>
    <stop stop-color="#990057" offset="1"/>
  </linearGradient>
  <path d="m112 1.2c-0.8 0-1.8 0.5-1.8 1.6v36c0 0.7 0.4 1.5 1.1 1.8l19.9 9c1.4 0.7 2.2 0.7 2.2-1.1v-36c0-0.7-0.4-1.3-1-1.6l-20.2-9.6-0.2-0.1z" fill="url(#SVGID_14_)" stroke="#F215AE" stroke-miterlimit="10" stroke-width=".5"/>
  <linearGradient id="SVGID_15_" x1="124.5" x2="145.5" y1="25.82" y2="25.82" gradientUnits="userSpaceOnUse">
    <stop stop-color="#3D0047" offset="0"/>
    <stop stop-color="#59005B" offset="1"/>
  </linearGradient>
  <path d="m126.4 0.7c-0.6 0.3-1.6 0.6-1.8 1.7v34.5c0 0.7 0.4 1.5 1.1 1.8l18.7 8.9c1 0.5 2.1 0 2.1-1.2v-34.8c0-0.7-0.4-1.4-1-1.7l-18.9-9.3-0.2 0.1z" fill="url(#SVGID_15_)" stroke="#E710F4" stroke-miterlimit="10" stroke-width=".5"/>
  <linearGradient id="SVGID_16_" x1="131.4" x2="146.5" y1="26.4" y2="26.4" gradientUnits="userSpaceOnUse">
    <stop stop-color="#860266" offset="0"/>
    <stop stop-color="#6E0278" offset="1"/>
  </linearGradient>
  <path d="m133.4 15c-2.2 2-5.8 9.1-7 11.9v10.6c0 0.7 0.4 1.2 1 1.5l17.1 8.4c0.9 0.5 2 0 2-1.1v-33.8c0-0.2 0-0.4-0.1-0.5-1.5 0.5-5.2 6.5-7.7 11.4-2.1-2.5-1.8-1.8-2.1-2.5l-3.2 5.5 3.2-6.4c-1.5-1-2.3-1.4-3.2-1.4l1.2-0.2 0.8 0.6 2-1.5c2.4 0.1 2.9 1 5.6 0.5 1.4-0.5 1.9-0.5 3.4 0l0.1-6.4c0-0.6-0.3-1.1-0.8-1.4l-6.3-2.8c-2 2-4.3 5.6-6 7.6z" fill="url(#SVGID_16_)"/>
  <linearGradient id="SVGID_17_" x1="133.6" x2="146.5" y1="28.25" y2="28.25" gradientUnits="userSpaceOnUse">
    <stop stop-color="#59025B" offset="0"/>
    <stop stop-color="#750278" offset="1"/>
  </linearGradient>
  <path d="m133.6 37.5c5 0.5 6.4-7.1 7-10.1 0.5-3.5 4.9-1.9 5.9-3v-12.4c-2.4 1-7.4 11-10.1 16-1.3 2.5-2.3 4-2.8 4.4v5.1z" fill="url(#SVGID_17_)"/>
  <linearGradient id="SVGID_18_" x1="116" x2="133.6" y1="28.44" y2="28.44" gradientUnits="userSpaceOnUse">
    <stop stop-color="#703" offset="0"/>
    <stop stop-color="#906" offset="1"/>
  </linearGradient>
  <path d="m121 19.7c-1.5 0-3.4 0.3-5 1.3v16.5c1.4 0 3.1 0.9 5-0.4 2-1.5 3.1-3.1 5-5.6s2-7.4 7.6-5.1v-12c-1.6 1.1-3.6 5.1-4.7 8.1-1.5-0.9-5.3-3-7.9-2.8z" fill="url(#SVGID_18_)"/>
  <linearGradient id="SVGID_19_" x1="109.9" x2="124.9" y1="29.15" y2="29.15" gradientUnits="userSpaceOnUse">
    <stop stop-color="#AF4000" offset="0"/>
    <stop stop-color="#910257" offset="1"/>
  </linearGradient>
  <path d="m117.6 15.5c-3.1 1-5.1 6.5-7.7 7.5v15l5.6 2.5c3.4-1 0.9-4.5 3.5-3.1 1.5 0.6 4-3.4 6-5.4v-5.6c-2.4-1.4-4.9 9.1-9 6.6-1.6-1 3.5-3.6 3-5-0.4-1-5.4 1-7.5 0l3.5-6c1.1-1.5 2.6-2 2.6-2v-4.5z" fill="url(#SVGID_19_)"/>
  <linearGradient id="SVGID_20_" x1="99.5" x2="109.9" y1="29" y2="29" gradientUnits="userSpaceOnUse">
    <stop stop-color="#8A6600" offset="0"/>
    <stop stop-color="#C96600" offset="1"/>
  </linearGradient>
  <path d="m104.6 15.4-0.7 2.6 1.7 0.5 1-1 1.5 5.4c1.4-0.9 3.4 0.1 3.9 1.1l-2.1 4v3.5c-0.4 1.4-0.9 4-3.3 5.9-2.5 2.1-2.2 4.6-4.7 4l-2.4-0.9v-17c1.4 0 5.1-0.1 4.1 1.5-1.5 2 3.5 1.5 4.5 3.5-0.5-3.1-1.7 4.5-3.5 2.9-1.7-1.4-2.2-2.4-5.1-2v-5.4l4.4-1.1 2.7-2.4-1-2-1.7-0.5 0.7-2.6z" fill="url(#SVGID_20_)"/>
  <linearGradient id="SVGID_21_" x1="83.5" x2="100.3" y1="32.1" y2="32.1" gradientUnits="userSpaceOnUse">
    <stop stop-color="#005900" offset="0"/>
    <stop stop-color="#690" offset="1"/>
  </linearGradient>
  <path d="m84.1 15.7 2.3 1.7c0.2 2.1 2.2 6 2.2 6.5 1-0.9 2.4-2.4 4.9-1.5 2.6 0.2 3.1 2.1 5.1 2l1.7-0.4v21l-4.8-2.1c-0.9-0.9-0.9-1.4-0.9-2.9 0-1.6 0.9-4.5-1.1-4-2 1-4 0-4 0-2.9 2.4-3.9 2.4-4.9 6.5-0.7 3-1.6 4-2.1 4l-3.5-1.5v-21.1l2.6-0.4c1.4 0 2.5 0.9 2.5 0.9l2.3-5c-2.5 0.5-3.4-0.9-2.3-3.7z" fill="url(#SVGID_21_)"/>
  <linearGradient id="SVGID_22_" x1="62.6" x2="78.4" y1="34" y2="34" gradientUnits="userSpaceOnUse">
    <stop stop-color="#006A57" offset="0"/>
    <stop stop-color="#009978" offset="1"/>
  </linearGradient>
  <path d="m66.1 23.1c0.9-0.6 1.5 5.5 2.9 7.5 1.6 2 0 2.5 2 1.5 1.6-0.6 4.1-1 5.4 0l2-1.5v15l-17-8.5 1.2-5c0.8 0 0.8 0.5 1.4-1.5 0.4-2 1-5 2.1-6.5v-1z" fill="url(#SVGID_22_)"/>
  <linearGradient id="SVGID_23_" x1="62.6" x2="69" y1="35.6" y2="35.6" gradientUnits="userSpaceOnUse">
    <stop stop-color="#006A57" offset="0"/>
    <stop stop-color="#009978" offset="1"/>
  </linearGradient>
  <path d="m66.1 25s0 7.1 2.9 10l-2.9 3.1-3.5-5c0.4-1.6 2-7 3.5-8.1z" fill="url(#SVGID_23_)"/>
  <linearGradient id="SVGID_24_" x1="62.6" x2="74.1" y1="38.1" y2="38.1" gradientUnits="userSpaceOnUse">
    <stop stop-color="#006A57" offset="0"/>
    <stop stop-color="#009978" offset="1"/>
  </linearGradient>
  <path d="m71 33.1c-1.9 0.9-2 5-4.9 5l-3.5 1.9v3.1h11.5v-10h-3.1z" fill="url(#SVGID_24_)"/>
  <linearGradient id="SVGID_25_" x1="78.4" x2="93" y1="33.5" y2="33.5" gradientUnits="userSpaceOnUse">
    <stop stop-color="#030" offset="0"/>
    <stop stop-color="#390" offset="1"/>
  </linearGradient>
  <path d="m86.4 22.9c1 1.5 3.1 3.6 3.1 3.6 1.1 0 3.5 3.4 3.5 5s-4.9 5-6.6 6.9c-1.8 2.1-1.3 3-2.8 3h-5.2v-2.4c1.2-1 2.2-4 3.2-5.5s1.4-4.5 3-7.5c1.5-3 1-4 1.8-4" fill="url(#SVGID_25_)"/>
  <linearGradient id="SVGID_26_" x1="90.9" x2="100.3" y1="26.05" y2="26.05" gradientUnits="userSpaceOnUse">
    <stop stop-color="#360" offset="0"/>
    <stop stop-color="#690" offset="1"/>
  </linearGradient>
  <path d="m94 22.9s4 0.6 3.6 1.5c-0.5 0.6 1.5 0 2.7 0v2.7l-4.2 2-5.2-2 3.1-4.2z" fill="url(#SVGID_26_)"/>
  <linearGradient id="SVGID_27_" x1="93.5" x2="100.3" y1="31.25" y2="31.25" gradientUnits="userSpaceOnUse">
    <stop stop-color="#360" offset="0"/>
    <stop stop-color="#690" offset="1"/>
  </linearGradient>
  <path d="m97.6 25c-1 0.5-4.1 4.1-4.1 4.1l0.5 2.4h6.3v-6.5h-2.7z" fill="url(#SVGID_27_)"/>
  <linearGradient id="SVGID_28_" x1="93.5" x2="100.3" y1="34.55" y2="34.55" gradientUnits="userSpaceOnUse">
    <stop stop-color="#360" offset="0"/>
    <stop stop-color="#580" offset="1"/>
  </linearGradient>
  <path d="m93.5 31.5h6.8v6c-1.2-1-4.7-4.4-6.8-4.4v-1.6z" fill="url(#SVGID_28_)"/>
  <linearGradient id="SVGID_29_" x1="99.5" x2="107.1" y1="33.5" y2="33.5" gradientUnits="userSpaceOnUse">
    <stop stop-color="#8A6600" offset="0"/>
    <stop stop-color="#A96600" offset="1"/>
  </linearGradient>
  <path d="m104.6 28c-0.5 0.6-1 5.5-1.5 6s-3.6 3-3.6 3l0.8 4c1.3 1.1 2.8 0.5 4.3-2.5l2.5-2.5v-7l-2.5-1z" fill="url(#SVGID_29_)"/>
  <path class="cls-13" d="m88.6 30.8c-1.4 0-1.7 2.3 0 2.5 1.8 0.2 1.9-2.5 0-2.5z"/>
  <path class="cls-12" d="m108.4 29.1c-1.5 0-1.9 2.3 0 2.4 1.5 0.1 1.6-2.4 0-2.4z"/>
  <path class="cls-13" d="m93 29.9c-1.4-2.9-2.4-3.8-3.5-1.9s-0.9 3.5 1.9 3.5c3 0 1.6 0 1.6-1.6z"/>
  <linearGradient id="SVGID_30_" x1="74.1" x2="87.5" y1="32.15" y2="32.15" gradientUnits="userSpaceOnUse">
    <stop stop-color="#006A57" offset="0"/>
    <stop stop-color="#090" offset="1"/>
  </linearGradient>
  <path d="m74.1 31.5h13.4c1 2-1.4 1.6-2.9 1.4l-10.5 0.2v-1.6z" fill="url(#SVGID_30_)"/>
  <linearGradient id="SVGID_31_" x1="94" x2="106.9" y1="30.6" y2="30.6" gradientUnits="userSpaceOnUse">
    <stop stop-color="#460" offset="0"/>
    <stop stop-color="#970" offset="1"/>
  </linearGradient>
  <path d="m94 29.9h12.9c0 1.5-2.3 2.1-3.8 1.5l-9.1 0.1v-1.6z" fill="url(#SVGID_31_)"/>
  <linearGradient id="SVGID_32_" x1="109.1" x2="118.1" y1="30.4" y2="30.4" gradientUnits="userSpaceOnUse">
    <stop stop-color="#B96600" offset="0"/>
    <stop stop-color="#FF8D00" offset="1"/>
  </linearGradient>
  <path d="m109.1 29.1h9c0 1.4 0 2.5-1.5 2.4h-7.5v-2.4z" fill="url(#SVGID_32_)"/>
  <path class="cls-14" d="m84.1 39.3c-1.2 0-1.5 2.1 0 2.1 1.5 0.1 1.5-2.1 0-2.1z"/>
  <linearGradient id="SVGID_33_" x1="45" x2="66.2" y1="40.25" y2="40.25" gradientUnits="userSpaceOnUse">
    <stop stop-color="#006999" offset="0"/>
    <stop stop-color="#00B4FF" stop-opacity=".5" offset="1"/>
  </linearGradient>
  <path d="m46.1 39.3h19.1c1.4 0 1.4 2.1 0 2.1h-20.2l1.1-2.1z" fill="url(#SVGID_33_)"/>
  <linearGradient id="SVGID_34_" x1="66.2" x2="83.8" y1="40.3" y2="40.3" gradientUnits="userSpaceOnUse">
    <stop stop-color="#009978" offset="0"/>
    <stop stop-color="#009923" offset="1"/>
  </linearGradient>
  <path d="m67.1 39.3h16.7c0.8 0 1.2 2.1-0.7 2.1h-16.9l0.9-2.1z" fill="url(#SVGID_34_)"/>
  <path class="cls-9" d="m2.3 23.1c-1.5-0.5-2.1 1.9-0.4 2.4 1.6 0.1 2-1.9 0.4-2.4z"/>
  <path class="cls-9" d="m16 23c-1.6 0.4-1.9 2.5 0 2.5 1.6-0.1 1.6-2.4 0-2.5z"/>
  <path class="cls-9" d="m29.7 17.2c-1.6 0.2-1.8 2.4 0 2.5 1.7-0.1 1.8-2.3 0-2.5z"/>
  <circle class="cls-9" cx="41.6" cy="24.2" r="1.3"/>
  <circle class="cls-10" cx="51.2" cy="24.2" r="1.2"/>
  <circle class="cls-9" cx="43.8" cy="40.2" r="1.3"/>
  <circle class="cls-11" cx="22.6" cy="32.1" r="1.3"/>
  <circle class="cls-9" cx="35.4" cy="32.1" r="1.3"/>
  <circle class="cls-9" cx="50" cy="32.1" r="1.3"/>
  <circle class="cls-9" cx="68.5" cy="32.1" r="1.2"/>
  <circle class="cls-9" cx="64.9" cy="40.3" r="1.2"/>
  <circle class="cls-10" cx="15" cy="40.3" r="1.2"/>
  <circle class="cls-10" cx="7.7" cy="32.1" r="1.2"/>
  <circle class="cls-10" cx="29.3" cy="40.3" r="1.2"/>
  <circle class="cls-15" cx="118" cy="30.3" r="1.1"/>
  <circle class="cls-16" cx="125.4" cy="28.7" r="1.2"/>
  <circle class="cls-17" cx="139.1" cy="27.9" r="1.2"/>
  <circle class="cls-18" cx="165.6" cy="32.1" r="1.2"/>
  <circle class="cls-19" cx="171.6" cy="40.3" r="1.2"/>
  <circle class="cls-18" cx="177.7" cy="32.1" r="1.2"/>
  <circle class="cls-17" cx="160.1" cy="40.3" r="1.2"/>
  <circle class="cls-17" cx="160.1" cy="40.3" r="1.2"/>
  <circle class="cls-17" cx="160.1" cy="40.3" r="1.2"/>
  <circle class="cls-17" cx="155.1" cy="32.1" r="1.2"/>
  <circle class="cls-18" cx="155.1" cy="24.2" r="1.2"/>
  <circle class="cls-17" cx="157.2" cy="18.4" r="1.2"/>
  <circle class="cls-18" cx="165.6" cy="18.4" r="1.2"/>
  <circle class="cls-20" cx="172.8" cy="24.2" r="1.2"/>
</svg>